<svg width="55" height="23" viewBox="0 0 55 23" fill="none" xmlns="http://www.w3.org/2000/svg">
<path d="M10.7791 4.82745C9.44268 4.82745 8.36456 5.63605 7.66827 5.63605C6.93829 5.63605 5.96124 4.87238 4.8045 4.87238C2.60332 4.87238 0.368462 6.70294 0.368462 10.1282C0.368462 12.2733 1.19952 14.5306 2.22149 16.0018C3.08624 17.2259 3.86114 18.2366 4.96172 18.2366C6.05108 18.2366 6.53399 17.5179 7.89288 17.5179C9.26299 17.5179 9.57745 18.2142 10.7791 18.2142C11.9808 18.2142 12.7781 17.1248 13.5306 16.0467C14.3616 14.8001 14.721 13.5872 14.7322 13.5311C14.6648 13.5086 12.3738 12.5765 12.3738 9.94855C12.3738 7.67999 14.1707 6.66925 14.2718 6.59064C13.0926 4.87238 11.2845 4.82745 10.7791 4.82745ZM10.1614 3.37872C10.7005 2.71613 11.0823 1.81769 11.0823 0.90802C11.0823 0.784485 11.0711 0.66095 11.0486 0.559875C10.1727 0.593567 9.09454 1.14386 8.4544 1.8963C7.96026 2.46906 7.48858 3.37872 7.48858 4.28839C7.48858 4.42316 7.51104 4.56915 7.52227 4.61407C7.57842 4.62531 7.66827 4.63654 7.75811 4.63654C8.55547 4.63654 9.56622 4.09747 10.1614 3.37872ZM19.1467 1.82892V18.0345H22.0442V12.7225H25.5593C28.8386 12.7225 31.1297 10.5213 31.1297 7.30939C31.1297 4.04132 28.9173 1.82892 25.6829 1.82892H19.1467ZM22.0442 4.2547H24.9192C27.0081 4.2547 28.1873 5.32159 28.1873 7.30939C28.1873 9.24103 26.9744 10.3192 24.908 10.3192H22.0442V4.2547ZM36.5661 16.0467C35.3308 16.0467 34.4436 15.429 34.4436 14.3958C34.4436 13.3963 35.1736 12.8348 36.7346 12.7337L39.5085 12.554V13.5311C39.5085 14.9573 38.2507 16.0467 36.5661 16.0467ZM35.7463 18.2366C37.3523 18.2366 38.6999 17.5403 39.385 16.3499H39.5759V18.0345H42.26V9.64532C42.26 7.03986 40.4856 5.50128 37.3298 5.50128C34.4099 5.50128 32.3772 6.88263 32.1526 9.05011H34.7805C35.0388 8.21906 35.9148 7.76984 37.195 7.76984C38.6999 7.76984 39.5085 8.44366 39.5085 9.64532V10.6785L36.3415 10.8694C33.3542 11.0491 31.6809 12.3294 31.6809 14.553C31.6809 16.7991 33.3767 18.2366 35.7463 18.2366ZM45.3605 22.493C48.112 22.493 49.426 21.4822 50.4704 18.4276L54.9064 5.74835H51.9641L49.1003 15.3392H48.9094L46.0344 5.74835H42.9797L47.3708 18.0906L47.2248 18.6297C46.8654 19.764 46.2028 20.2132 45.0236 20.2132C44.8327 20.2132 44.4172 20.202 44.26 20.1683V22.4481C44.4396 22.4818 45.1921 22.493 45.3605 22.493Z" fill="black"/>
</svg>
