<svg width="144" height="28" viewBox="0 0 144 28" fill="none" xmlns="http://www.w3.org/2000/svg">
<circle cx="14" cy="14" r="14" fill="#CF1928"/>
<circle cx="30" cy="14" r="14" fill="#FFD400" fill-opacity="0.7"/>
<g clip-path="url(#clip0_25_1242)">
<path d="M71.177 9.50039L65.9424 18.5461H62.5185L59.9506 11.3143C59.786 10.8608 59.6543 10.7176 59.1934 10.5267C58.1791 10.1728 57.1057 9.91604 56 9.76293L56.0658 9.50039H61.5638C62.3069 9.50282 62.9363 9.89826 63.0453 10.4312L64.3951 15.6582L67.7531 9.50039H71.177ZM84.5761 15.5866C84.5761 13.1998 80.0329 13.0566 80.0658 12.0065C80.0658 11.6723 80.4938 11.3382 81.4486 11.2427C82.5439 11.1686 83.6467 11.3087 84.642 11.6485L85.2016 9.73906C84.235 9.46998 83.2083 9.33243 82.1728 9.33332C78.9794 9.33332 76.7407 10.5744 76.7078 12.3167C76.6749 13.6295 78.321 14.3455 79.5391 14.7751C80.7572 15.2047 81.2181 15.515 81.2181 15.8969C81.2181 16.4935 80.1975 16.78 79.2757 16.78C78.1173 16.8032 76.9708 16.6057 75.9506 16.2071L75.358 18.1881C76.498 18.5199 77.7183 18.6822 78.9465 18.6655C82.3374 18.6893 84.5432 17.4721 84.5761 15.5866ZM93.0041 18.5461H96L93.3992 9.50039H90.6337C90.0268 9.49512 89.4777 9.76051 89.251 10.1687L84.3786 18.5461H87.7695L88.428 17.1857H92.5761L93.0041 18.5461ZM89.3827 15.3479L91.0947 11.9587L92.0823 15.3479H89.3827ZM75.786 9.50039L73.1193 18.5461H69.893L72.5597 9.50039H75.786Z" fill="#1A1F71"/>
</g>
<path fill-rule="evenodd" clip-rule="evenodd" d="M138.34 8.45383C138.087 8.45168 137.838 8.52628 137.622 8.66911C137.406 8.81193 137.232 9.01722 137.12 9.26153L134.88 14.7969L134.07 9.26153C134.04 9.02247 133.925 8.80508 133.75 8.65463C133.575 8.50417 133.353 8.43225 133.13 8.45383H130.29L132.72 17.6508C132.755 17.8427 132.755 18.0403 132.72 18.2323C132.646 18.6132 132.457 18.9568 132.182 19.2085C131.906 19.4602 131.561 19.6056 131.2 19.6215H129.63C129.22 19.6215 128.96 19.8908 128.83 20.5046L128.47 22.7877H131.28C132.183 22.7572 133.062 22.4638 133.822 21.9385C134.583 21.4133 135.197 20.6758 135.6 19.8046L141.22 8.45383H138.34Z" fill="#323E48"/>
<path fill-rule="evenodd" clip-rule="evenodd" d="M110.74 5.7077C111.58 5.7077 111.99 6.06309 111.84 6.97847L111.6 8.45386H113.53L113.1 11.0492H111.17L110.65 14.28C110.46 15.3569 111.49 15.5508 112.08 15.5508H112.37L111.9 18.4154C111.75 18.4154 111.6 18.4154 111.28 18.4154C109.82 18.4154 107.05 17.9954 107.59 14.6677L108.19 11.0169H106.78L107.21 8.42155H108.6L109.05 5.7077H110.74Z" fill="#323E48"/>
<path fill-rule="evenodd" clip-rule="evenodd" d="M127 8.61542L126.51 11.6416C126.868 11.8391 127.158 12.1552 127.337 12.5436C127.516 12.9319 127.575 13.3719 127.504 13.7987C127.434 14.2256 127.238 14.6168 126.945 14.9147C126.653 15.2127 126.279 15.4017 125.88 15.4539L125.39 18.48H125.65C126.772 18.4791 127.857 18.0439 128.706 17.2536C129.555 16.4633 130.112 15.3707 130.276 14.1749C130.44 12.9791 130.199 11.7598 129.597 10.7393C128.996 9.71875 128.074 8.96499 127 8.61542Z" fill="#00ADBB"/>
<path fill-rule="evenodd" clip-rule="evenodd" d="M124.75 15.2061C124.391 15.0094 124.101 14.6941 123.922 14.3066C123.742 13.9192 123.683 13.4799 123.752 13.0534C123.821 12.6268 124.016 12.2355 124.307 11.9368C124.598 11.6381 124.971 11.4478 125.37 11.3938L125.87 8.36768H125.6C124.48 8.37724 123.401 8.81742 122.557 9.60873C121.713 10.4 121.16 11.4903 120.997 12.6826C120.834 13.875 121.072 15.0908 121.669 16.1105C122.265 17.1302 123.181 17.8866 124.25 18.2431L124.75 15.2061Z" fill="#00ADBB"/>
<path fill-rule="evenodd" clip-rule="evenodd" d="M114.64 8.45383H116.3C117.14 8.45383 117.55 8.80922 117.4 9.7246L117.22 10.8015C117.523 10.1111 117.991 9.51987 118.576 9.08841C119.162 8.65695 119.843 8.40078 120.55 8.34614C120.666 8.33652 120.784 8.33652 120.9 8.34614L120.37 11.5769C120.166 11.5307 119.958 11.509 119.75 11.5123C119.199 11.4942 118.654 11.6483 118.182 11.9559C117.71 12.2636 117.331 12.7116 117.09 13.2461C116.909 13.675 116.781 14.1276 116.71 14.5923L116.11 18.3077H113L114.64 8.45383Z" fill="#323E48"/>
<defs>
<clipPath id="clip0_25_1242">
<rect width="40" height="28" fill="white" transform="translate(56)"/>
</clipPath>
</defs>
</svg>
