<svg width="103" height="98" viewBox="0 0 103 98" fill="none" xmlns="http://www.w3.org/2000/svg">
<path d="M26.5629 96.3428C24.3821 95.8438 -1.82747 91.3502 0.101371 58.2103C2.03021 25.0703 4.45269 15.0998 14.6418 11.4584C24.831 7.81692 49.6017 -9.44555 69.0384 6.95904C88.4752 23.3636 109.451 38.0784 101.126 64.2741C92.8013 90.4697 91.4407 99.2065 69.7243 97.8689C48.0078 96.5313 36.9359 98.7132 26.5629 96.3428Z" fill="#F0F9FC"/>
<path d="M68.8007 76.7875C68.7138 77.6033 68.3842 78.3528 67.8736 78.896C67.363 79.4391 66.7063 79.7387 66.0263 79.7387H33.3917C32.7109 79.7389 32.0533 79.4387 31.5424 78.8944C31.0314 78.35 30.7021 77.599 30.6162 76.782L68.8007 76.7875Z" fill="white"/>
<path d="M66.0228 80.0145H33.3882C32.6522 80.0137 31.9416 79.6888 31.3892 79.1004C30.8368 78.512 30.4804 77.7005 30.3865 76.8174C30.379 76.7441 30.3958 76.6702 30.4333 76.6119C30.4707 76.5536 30.5258 76.5157 30.5864 76.5065C30.647 76.4974 30.7081 76.5177 30.7563 76.5631C30.8045 76.6084 30.8358 76.675 30.8434 76.7483C30.923 77.4972 31.2251 78.1855 31.6933 78.6848C32.1616 79.1841 32.764 79.4603 33.3882 79.4619H66.0228C66.6472 79.4611 67.25 79.1857 67.7189 78.6869C68.1877 78.1881 68.4906 77.5001 68.571 76.7511C68.5786 76.6778 68.6099 76.6112 68.6581 76.5658C68.7063 76.5205 68.7674 76.5002 68.828 76.5093C68.8886 76.5185 68.9437 76.5564 68.9812 76.6147C69.0187 76.673 69.0355 76.7469 69.0279 76.8202C68.933 77.7032 68.5758 78.5143 68.0228 79.1021C67.4698 79.6899 66.7589 80.0142 66.0228 80.0145Z" fill="#6A79A8"/>
<path d="M43.5264 64.022C45.5589 63.4504 46.8234 60.9938 46.3508 58.5352C45.8782 56.0766 43.8474 54.547 41.8149 55.1187C39.7824 55.6904 38.5179 58.1469 38.9905 60.6055C39.4631 63.0641 41.4939 64.5937 43.5264 64.022Z" fill="#BBDFF5"/>
<path d="M45.3471 66.1813C46.8227 64.3964 46.8227 61.5025 45.3471 59.7177C43.8716 57.9328 41.4793 57.9328 40.0037 59.7177C38.5282 61.5025 38.5282 64.3964 40.0037 66.1813C41.4793 67.9661 43.8716 67.9661 45.3471 66.1813Z" fill="#BBDFF5"/>
<path d="M45.779 60.5188C45.7185 60.5188 45.6604 60.4897 45.6175 60.4379C45.5747 60.3861 45.5506 60.3158 45.5506 60.2425C45.5591 59.672 45.4735 59.1052 45.2989 58.5752C45.1242 58.0451 44.864 57.5625 44.5335 57.1554C44.203 56.7484 43.8087 56.4251 43.3737 56.2043C42.9388 55.9836 42.4718 55.87 42.0001 55.87C41.5284 55.87 41.0615 55.9836 40.6265 56.2043C40.1915 56.4251 39.7973 56.7484 39.4667 57.1554C39.1362 57.5625 38.876 58.0451 38.7014 58.5752C38.5268 59.1052 38.4412 59.672 38.4496 60.2425C38.4496 60.3158 38.4256 60.3861 38.3827 60.4379C38.3399 60.4897 38.2818 60.5188 38.2212 60.5188C38.1606 60.5188 38.1025 60.4897 38.0597 60.4379C38.0168 60.3861 37.9928 60.3158 37.9928 60.2425C37.9838 59.599 38.0808 58.9599 38.2782 58.3622C38.4755 57.7646 38.7693 57.2204 39.1423 56.7616C39.5153 56.3027 39.9601 55.9382 40.4507 55.6894C40.9414 55.4406 41.4681 55.3125 42.0001 55.3125C42.5321 55.3125 43.0588 55.4406 43.5495 55.6894C44.0402 55.9382 44.485 56.3027 44.858 56.7616C45.231 57.2204 45.5247 57.7646 45.7221 58.3622C45.9194 58.9599 46.0165 59.599 46.0075 60.2425C46.0075 60.3158 45.9834 60.3861 45.9406 60.4379C45.8977 60.4897 45.8396 60.5188 45.779 60.5188Z" fill="#6A79A8"/>
<path d="M42.0013 68.4753C41.2085 68.4756 40.4335 68.1915 39.7743 67.659C39.115 67.1264 38.6011 66.3693 38.2976 65.4835C37.9941 64.5976 37.9145 63.6228 38.0691 62.6822C38.2236 61.7417 38.6052 60.8777 39.1657 60.1995C39.7262 59.5214 40.4403 59.0595 41.2178 58.8723C41.9953 58.6851 42.8012 58.7811 43.5336 59.148C44.2661 59.5149 44.8921 60.1363 45.3325 60.9336C45.773 61.7309 46.0081 62.6683 46.0081 63.6272C46.0069 64.9123 45.5844 66.1444 44.8332 67.0533C44.0821 67.9621 43.0637 68.4735 42.0013 68.4753ZM42.0013 59.3331C41.2988 59.3328 40.6121 59.5845 40.028 60.0564C39.4438 60.5283 38.9885 61.1992 38.7196 61.9841C38.4507 62.7691 38.3803 63.6329 38.5172 64.4663C38.6542 65.2996 38.9925 66.0651 39.4891 66.666C39.9858 67.2668 40.6187 67.6759 41.3076 67.8416C41.9966 68.0073 42.7107 67.9221 43.3596 67.5968C44.0085 67.2716 44.5631 66.7208 44.9532 66.0142C45.3433 65.3076 45.5514 64.4769 45.5512 63.6272C45.55 62.4888 45.1756 61.3974 44.5101 60.5924C43.8446 59.7874 42.9424 59.3346 42.0013 59.3331Z" fill="#6A79A8"/>
<path d="M53.0537 54.898V64.4258H56.1045V54.898H53.0537Z" fill="#BBDFF5"/>
<path d="M55.6083 64.7021C55.5477 64.7021 55.4896 64.673 55.4468 64.6212C55.404 64.5694 55.3799 64.4991 55.3799 64.4258V54.8925C55.3799 54.8193 55.404 54.749 55.4468 54.6971C55.4896 54.6453 55.5477 54.6162 55.6083 54.6162C55.6689 54.6162 55.727 54.6453 55.7699 54.6971C55.8127 54.749 55.8368 54.8193 55.8368 54.8925V64.4258C55.8368 64.4991 55.8127 64.5694 55.7699 64.6212C55.727 64.673 55.6689 64.7021 55.6083 64.7021Z" fill="#6A79A8"/>
<path d="M30.5928 9.82779V9.26685C30.5928 8.40353 30.8763 7.57558 31.3809 6.96512C31.8856 6.35467 32.5701 6.01172 33.2838 6.01172H66.1308C66.8445 6.01172 67.5289 6.35467 68.0336 6.96512C68.5383 7.57558 68.8218 8.40353 68.8218 9.26685V9.82779H30.5928Z" fill="white"/>
<path d="M68.7253 73.7217L68.7267 74.5721C68.729 75.8808 68.448 77.1366 67.9454 78.0633C67.4428 78.99 66.7598 79.5116 66.0468 79.5135L33.2292 79.5972C32.5161 79.599 31.8314 79.0808 31.3255 78.1567C30.8197 77.2326 30.5343 75.9782 30.532 74.6695L30.5305 73.8191L68.7253 73.7217Z" fill="white"/>
<path d="M68.8207 10.1043C68.7601 10.1043 68.702 10.0752 68.6592 10.0234C68.6164 9.97156 68.5923 9.90128 68.5923 9.82799V9.26705C68.5917 8.47725 68.332 7.72 67.8704 7.16153C67.4087 6.60305 66.7827 6.28898 66.1297 6.28825H33.2827C32.6298 6.28898 32.0038 6.60305 31.5421 7.16153C31.0804 7.72 30.8208 8.47725 30.8202 9.26705V9.82799C30.8202 9.90128 30.7961 9.97156 30.7533 10.0234C30.7104 10.0752 30.6523 10.1043 30.5917 10.1043C30.5311 10.1043 30.473 10.0752 30.4302 10.0234C30.3874 9.97156 30.3633 9.90128 30.3633 9.82799V9.26705C30.3642 8.33079 30.6721 7.43318 31.2194 6.77115C31.7667 6.10911 32.5087 5.73669 33.2827 5.7356H66.1297C66.9037 5.73669 67.6458 6.10911 68.1931 6.77115C68.7404 7.43318 69.0483 8.33079 69.0492 9.26705V9.82799C69.0492 9.90128 69.0251 9.97156 68.9823 10.0234C68.9394 10.0752 68.8813 10.1043 68.8207 10.1043Z" fill="#6A79A8"/>
<path d="M36.7568 9.15386C36.6962 9.15386 36.6381 9.12475 36.5952 9.07292C36.5524 9.0211 36.5283 8.95082 36.5283 8.87753C36.5283 8.55348 36.6347 8.24268 36.824 8.01341C37.0133 7.78414 37.2701 7.65515 37.538 7.65479H61.8746C62.1426 7.65515 62.3995 7.78409 62.589 8.01332C62.7785 8.24255 62.8851 8.55335 62.8854 8.87753C62.8854 8.95082 62.8614 9.0211 62.8185 9.07292C62.7757 9.12475 62.7176 9.15386 62.657 9.15386C62.5964 9.15386 62.5383 9.12475 62.4955 9.07292C62.4526 9.0211 62.4286 8.95082 62.4286 8.87753C62.4286 8.69981 62.3702 8.52937 62.2663 8.4037C62.1624 8.27804 62.0215 8.20744 61.8746 8.20744H37.538C37.3913 8.2078 37.2507 8.27857 37.147 8.40419C37.0434 8.52982 36.9852 8.70005 36.9852 8.87753C36.9852 8.95082 36.9611 9.0211 36.9183 9.07292C36.8754 9.12475 36.8173 9.15386 36.7568 9.15386Z" fill="#6A79A8"/>
<path d="M37.3657 53.9321H37.2344C37.2781 53.9356 37.322 53.9356 37.3657 53.9321Z" fill="white"/>
<path d="M59.0829 54.2127H37.2089C37.1483 54.2127 37.0902 54.1836 37.0474 54.1318C37.0045 54.0799 36.9805 54.0097 36.9805 53.9364C36.9805 53.8631 37.0045 53.7928 37.0474 53.741C37.0902 53.6892 37.1483 53.66 37.2089 53.66H59.0818C59.6666 53.66 60.0675 53.0701 60.1577 52.0767C60.1644 52.0034 60.1949 51.9363 60.2424 51.8902C60.29 51.8441 60.3507 51.8227 60.4113 51.8308C60.4719 51.8388 60.5273 51.8757 60.5655 51.9332C60.6036 51.9907 60.6213 52.0642 60.6146 52.1375C60.4718 53.6683 59.7294 54.2127 59.0829 54.2127Z" fill="#6A79A8"/>
<path d="M37.3333 54.2131C37.2486 54.2131 37.1641 54.2033 37.0809 54.184C36.535 54.0583 36.0347 53.5513 35.7754 52.8577C35.547 52.2553 35.547 51.6474 35.547 51.0616C35.547 50.9234 35.547 50.7852 35.547 50.6471C35.5453 50.5738 35.5678 50.5027 35.6094 50.4495C35.6511 50.3962 35.7085 50.3652 35.7691 50.3631C35.8297 50.3611 35.8885 50.3883 35.9325 50.4387C35.9765 50.4891 36.0022 50.5586 36.0038 50.6319C36.0038 50.7769 36.0038 50.9206 36.0038 51.0643C36.0038 51.617 36.0038 52.1406 36.19 52.6352C36.3899 53.1672 36.7611 53.554 37.1643 53.6466C37.2863 53.6745 37.4118 53.6713 37.5327 53.6373C37.6537 53.6032 37.7674 53.5391 37.8667 53.449C38.0746 53.2639 38.3396 52.877 38.4161 52.0826C38.4231 52.0093 38.4539 51.9424 38.5016 51.8965C38.5494 51.8506 38.6103 51.8296 38.6708 51.838C38.7314 51.8465 38.7868 51.8837 38.8247 51.9414C38.8626 51.9992 38.88 52.0728 38.873 52.1461C38.7771 53.1381 38.4161 53.6438 38.1409 53.8939C37.9071 54.1025 37.6239 54.2145 37.3333 54.2131Z" fill="#6A79A8"/>
<path d="M68.8218 11.9028H30.5928V73.8345H68.8218V11.9028Z" fill="white"/>
<path d="M68.8207 74.1111H30.5917C30.5311 74.1111 30.473 74.082 30.4302 74.0302C30.3874 73.9783 30.3633 73.9081 30.3633 73.8348V11.9003C30.3633 11.8271 30.3874 11.7568 30.4302 11.705C30.473 11.6531 30.5311 11.624 30.5917 11.624H68.8207C68.8813 11.624 68.9394 11.6531 68.9823 11.705C69.0251 11.7568 69.0492 11.8271 69.0492 11.9003V73.8348C69.0492 73.9081 69.0251 73.9783 68.9823 74.0302C68.9394 74.082 68.8813 74.1111 68.8207 74.1111ZM30.8202 73.5584H68.5923V12.1767H30.8202V73.5584Z" fill="#6A79A8"/>
<path d="M63.3192 15.5115H35.943C34.576 15.5115 33.4678 19.2057 33.4678 23.7627V62.8049C33.4678 67.362 34.576 71.0561 35.943 71.0561H63.3192C64.6862 71.0561 65.7944 67.362 65.7944 62.8049V23.7627C65.7944 19.2057 64.6862 15.5115 63.3192 15.5115Z" fill="#A3E8A3"/>
<path d="M63.4647 71.0561H36.1648C35.4496 71.0532 34.7639 70.1224 34.2583 68.4679C33.7527 66.8135 33.4684 64.5706 33.4678 62.2314V24.3325C33.4687 21.9939 33.7531 19.752 34.2587 18.0984C34.7643 16.4448 35.4498 15.5144 36.1648 15.5115H63.4647C64.1797 15.5144 64.8652 16.4448 65.3708 18.0984C65.8764 19.752 66.1608 21.9939 66.1617 24.3325V62.2314C66.1611 64.5706 65.8768 66.8135 65.3712 68.4679C64.8655 70.1224 64.1799 71.0532 63.4647 71.0561ZM36.1648 17.0078C35.571 17.0098 35.0018 17.7821 34.5819 19.1554C34.162 20.5286 33.9259 22.3905 33.9253 24.3325V62.2314C33.9259 64.1737 34.162 66.036 34.5818 67.4098C35.0017 68.7836 35.5709 69.5568 36.1648 69.5598H63.4647C64.0586 69.5568 64.6278 68.7836 65.0477 67.4098C65.4675 66.036 65.7036 64.1737 65.7042 62.2314V24.3325C65.7036 22.3905 65.4675 20.5286 65.0476 19.1554C64.6277 17.7821 64.0584 17.0098 63.4647 17.0078H36.1648Z" fill="#6A79A8"/>
<path d="M38.1956 74.6111H35.3532C34.9208 74.6111 34.5703 75.0262 34.5703 75.5383V77.6831C34.5703 78.1952 34.9208 78.6103 35.3532 78.6103H38.1956C38.628 78.6103 38.9785 78.1952 38.9785 77.6831V75.5383C38.9785 75.0262 38.628 74.6111 38.1956 74.6111Z" fill="#BBDFF5"/>
<path d="M63.5433 74.6111H60.7008C60.2685 74.6111 59.918 75.0262 59.918 75.5383V77.6831C59.918 78.1952 60.2685 78.6103 60.7008 78.6103H63.5433C63.9756 78.6103 64.3261 78.1952 64.3261 77.6831V75.5383C64.3261 75.0262 63.9756 74.6111 63.5433 74.6111Z" fill="#BBDFF5"/>
<path d="M51.7884 74.6111H48.946C48.5136 74.6111 48.1631 75.0262 48.1631 75.5383V77.6831C48.1631 78.1952 48.5136 78.6103 48.946 78.6103H51.7884C52.2208 78.6103 52.5713 78.1952 52.5713 77.6831V75.5383C52.5713 75.0262 52.2208 74.6111 51.7884 74.6111Z" fill="#BBDFF5"/>
<path d="M68.7995 77.0635H68.7698C68.7099 77.0542 68.6555 77.0166 68.6184 76.9588C68.5814 76.9011 68.5648 76.828 68.5722 76.7554C68.5859 76.6239 68.5928 76.4915 68.5928 76.3589V74.111H30.8206V76.3561C30.8206 76.4878 30.8275 76.6193 30.8412 76.7499C30.845 76.7862 30.8428 76.823 30.8348 76.8583C30.8267 76.8935 30.8131 76.9266 30.7945 76.9554C30.7759 76.9843 30.7529 77.0084 30.7266 77.0265C30.7003 77.0446 30.6713 77.0562 30.6413 77.0608C30.6113 77.0653 30.5809 77.0627 30.5517 77.053C30.5226 77.0433 30.4953 77.0267 30.4714 77.0043C30.4476 76.9818 30.4276 76.9539 30.4127 76.9221C30.3977 76.8903 30.3881 76.8553 30.3843 76.819C30.3684 76.6655 30.3603 76.5109 30.3604 76.3561V73.8347C30.3604 73.7614 30.3844 73.6911 30.4273 73.6393C30.4701 73.5875 30.5282 73.5583 30.5888 73.5583H68.8178C68.8784 73.5583 68.9365 73.5875 68.9793 73.6393C69.0222 73.6911 69.0462 73.7614 69.0462 73.8347V76.3561C69.0462 76.5118 69.0382 76.6673 69.0222 76.8218C69.0154 76.8877 68.9891 76.9485 68.9482 76.9929C68.9073 77.0373 68.8545 77.0624 68.7995 77.0635Z" fill="#6A79A8"/>
<path d="M68.8218 9.82324H30.5928V11.9137H68.8218V9.82324Z" fill="white"/>
<path d="M61.8746 10.1043H37.538C37.2701 10.1039 37.0133 9.97494 36.824 9.74568C36.6347 9.51641 36.5283 9.2056 36.5283 8.88155C36.5283 8.80826 36.5524 8.73798 36.5952 8.68616C36.6381 8.63434 36.6962 8.60522 36.7568 8.60522C36.8173 8.60522 36.8754 8.63434 36.9183 8.68616C36.9611 8.73798 36.9852 8.80826 36.9852 8.88155C36.9852 9.05903 37.0434 9.22926 37.147 9.35489C37.2507 9.48052 37.3913 9.55128 37.538 9.55164H61.8746C62.0215 9.55164 62.1624 9.48105 62.2663 9.35538C62.3702 9.22971 62.4286 9.05927 62.4286 8.88155C62.4286 8.80826 62.4526 8.73798 62.4955 8.68616C62.5383 8.63434 62.5964 8.60522 62.657 8.60522C62.7176 8.60522 62.7757 8.63434 62.8185 8.68616C62.8614 8.73798 62.8854 8.80826 62.8854 8.88155C62.8851 9.20573 62.7785 9.51653 62.589 9.74576C62.3995 9.97499 62.1426 10.1039 61.8746 10.1043Z" fill="#6A79A8"/>
<path d="M68.8207 12.189H30.5917C30.5311 12.189 30.473 12.1599 30.4302 12.1081C30.3874 12.0563 30.3633 11.986 30.3633 11.9127V9.82784C30.3633 9.75455 30.3874 9.68427 30.4302 9.63245C30.473 9.58063 30.5311 9.55151 30.5917 9.55151C30.6523 9.55151 30.7104 9.58063 30.7533 9.63245C30.7961 9.68427 30.8202 9.75455 30.8202 9.82784V11.6405H68.5923V9.82784C68.5923 9.75455 68.6164 9.68427 68.6592 9.63245C68.702 9.58063 68.7601 9.55151 68.8207 9.55151C68.8813 9.55151 68.9394 9.58063 68.9823 9.63245C69.0251 9.68427 69.0492 9.75455 69.0492 9.82784V11.9169C69.0483 11.9894 69.0238 12.0587 68.9811 12.1096C68.9383 12.1605 68.8807 12.1891 68.8207 12.189Z" fill="#6A79A8"/>
<path d="M81.373 88.0004C86.8813 88.0004 91.3466 82.599 91.3466 75.936C91.3466 69.273 86.8813 63.8716 81.373 63.8716C75.8647 63.8716 71.3994 69.273 71.3994 75.936C71.3994 82.599 75.8647 88.0004 81.373 88.0004Z" fill="white"/>
<path d="M81.2783 87.6308C86.7865 87.6308 91.2519 82.2294 91.2519 75.5664C91.2519 68.9034 86.7865 63.502 81.2783 63.502C75.77 63.502 71.3047 68.9034 71.3047 75.5664C71.3047 82.2294 75.77 87.6308 81.2783 87.6308Z" fill="#A3E8A3"/>
<path d="M81.3752 88.2785C79.3572 88.2788 77.3844 87.5551 75.7063 86.1991C74.0283 84.8431 72.7203 82.9156 71.9479 80.6604C71.1755 78.4052 70.9733 75.9236 71.3668 73.5294C71.7604 71.1352 72.732 68.9359 74.1589 67.2097C75.5858 65.4834 77.4039 64.3078 79.3831 63.8315C81.3624 63.3552 83.4139 63.5995 85.2784 64.5336C87.1428 65.4677 88.7364 67.0496 89.8576 69.0793C90.9788 71.109 91.5772 73.4953 91.5772 75.9364C91.5745 79.2084 90.4988 82.3456 88.5862 84.6594C86.6736 86.9733 84.0802 88.2748 81.3752 88.2785ZM81.3752 64.1483C79.4475 64.148 77.563 64.8393 75.96 66.1346C74.3571 67.4299 73.1077 69.2712 72.3699 71.4255C71.6321 73.5798 71.439 75.9504 71.815 78.2374C72.191 80.5245 73.1193 82.6253 74.4824 84.2742C75.8455 85.923 77.5822 87.0459 79.4729 87.5007C81.3637 87.9556 83.3234 87.722 85.1043 86.8295C86.8853 85.937 88.4075 84.4257 89.4783 82.4868C90.5492 80.5478 91.1206 78.2682 91.1204 75.9364C91.1173 72.8111 90.0897 69.8149 88.2627 67.605C86.4358 65.3951 83.9589 64.1519 81.3752 64.1483Z" fill="#6A79A8"/>
<path d="M41.5209 23.675C41.4119 23.6699 41.3065 23.6261 41.218 23.5491C41.1294 23.4721 41.0615 23.3653 41.0227 23.242C40.9839 23.1187 40.9759 22.9843 40.9998 22.8556C41.0236 22.7268 41.0783 22.6094 41.1568 22.5179C41.2354 22.4264 41.3345 22.3649 41.4418 22.341C41.5491 22.3171 41.6598 22.3318 41.7601 22.3834C41.8605 22.4351 41.9462 22.5212 42.0064 22.6312C42.0666 22.7412 42.0987 22.8702 42.0988 23.0022C42.0949 23.1837 42.0321 23.3561 41.9239 23.482C41.8158 23.6079 41.671 23.6773 41.5209 23.675Z" fill="#6A79A8"/>
<path d="M57.8929 23.675C57.784 23.6699 57.6786 23.6261 57.59 23.5491C57.5015 23.4721 57.4336 23.3653 57.3948 23.242C57.356 23.1187 57.348 22.9843 57.3719 22.8556C57.3957 22.7268 57.4503 22.6094 57.5289 22.5179C57.6075 22.4264 57.7066 22.3649 57.8139 22.341C57.9211 22.3171 58.0318 22.3318 58.1322 22.3834C58.2326 22.4351 58.3182 22.5212 58.3784 22.6312C58.4387 22.7412 58.4708 22.8702 58.4709 23.0022C58.467 23.1837 58.4042 23.3561 58.296 23.482C58.1878 23.6079 58.043 23.6773 57.8929 23.675Z" fill="#6A79A8"/>
<path d="M42.5894 27.8386C43.164 27.8386 43.6299 27.087 43.6299 26.1599C43.6299 25.2328 43.164 24.4812 42.5894 24.4812C42.0147 24.4812 41.5488 25.2328 41.5488 26.1599C41.5488 27.087 42.0147 27.8386 42.5894 27.8386Z" fill="white"/>
<path d="M56.9087 27.8386C57.4834 27.8386 57.9492 27.087 57.9492 26.1599C57.9492 25.2328 57.4834 24.4812 56.9087 24.4812C56.334 24.4812 55.8682 25.2328 55.8682 26.1599C55.8682 27.087 56.334 27.8386 56.9087 27.8386Z" fill="white"/>
<path d="M49.8051 29.092C48.1084 29.0923 46.4684 28.3537 45.185 27.0113C45.1586 26.9891 45.1364 26.9605 45.1198 26.9273C45.1032 26.8941 45.0926 26.857 45.0887 26.8185C45.0847 26.78 45.0875 26.7409 45.0969 26.7037C45.1062 26.6666 45.1219 26.6323 45.143 26.603C45.1641 26.5737 45.19 26.5501 45.2191 26.5338C45.2482 26.5174 45.2798 26.5087 45.3119 26.5081C45.344 26.5075 45.3758 26.5151 45.4053 26.5304C45.4348 26.5457 45.4613 26.5683 45.4831 26.5968C46.6724 27.8393 48.1885 28.5288 49.7599 28.542C51.3313 28.5552 52.8552 27.8911 54.0586 26.6686C54.1053 26.6253 54.164 26.6055 54.2225 26.6132C54.281 26.621 54.3347 26.6557 54.3726 26.7102C54.4104 26.7647 54.4294 26.8347 54.4256 26.9058C54.4218 26.9768 54.3955 27.0433 54.3522 27.0914C53.0777 28.3834 51.468 29.0916 49.8051 29.092Z" fill="#6A79A8"/>
<path d="M88 73.5294H75M78.6111 71.4118V70M84.3889 71.4118V70M76.4444 70.7059H76.3722C75.6144 70.7059 75 71.3064 75 72.0471V80.5882C75 81.368 75.6467 82 76.4444 82H86.5556C87.3533 82 88 81.368 88 80.5882V72.0471C88 71.3064 87.3856 70.7059 86.6278 70.7059H86.5556M80.7778 70.7059H82.2222M83.8494 76.4312L81.4135 79.3968C81.1443 79.7246 80.6437 79.7513 80.3396 79.4541L79.3333 78.4706" stroke="white" stroke-linecap="round"/>
<path d="M63.7417 41H54.5H45.2583C45.1898 41 45.1241 40.9473 45.0757 40.8536C45.0272 40.7598 45 40.6326 45 40.5C45 40.3674 45.0272 40.2402 45.0757 40.1465C45.1241 40.0527 45.1898 40 45.2583 40H54.5H63.7417C63.8102 40 63.8759 40.0527 63.9243 40.1465C63.9728 40.2402 64 40.3674 64 40.5C64 40.6326 63.9728 40.7598 63.9243 40.8536C63.8759 40.9473 63.8102 41 63.7417 41Z" fill="white"/>
<path d="M63.7417 50H54.5H45.2583C45.1898 50 45.1241 49.9473 45.0757 49.8536C45.0272 49.7598 45 49.6326 45 49.5C45 49.3674 45.0272 49.2402 45.0757 49.1465C45.1241 49.0527 45.1898 49 45.2583 49H54.5H63.7417C63.8102 49 63.8759 49.0527 63.9243 49.1465C63.9728 49.2402 64 49.3674 64 49.5C64 49.6326 63.9728 49.7598 63.9243 49.8536C63.8759 49.9473 63.8102 50 63.7417 50Z" fill="white"/>
<path d="M63.7417 60H54.5H45.2583C45.1898 60 45.1241 59.9473 45.0757 59.8536C45.0272 59.7598 45 59.6326 45 59.5C45 59.3674 45.0272 59.2402 45.0757 59.1465C45.1241 59.0527 45.1898 59 45.2583 59H54.5H63.7417C63.8102 59 63.8759 59.0527 63.9243 59.1465C63.9728 59.2402 64 59.3674 64 59.5C64 59.6326 63.9728 59.7598 63.9243 59.8536C63.8759 59.9473 63.8102 60 63.7417 60Z" fill="white"/>
<path d="M42.9632 39.6953L42.9791 42.1038C42.9816 42.5535 42.797 42.9859 42.4658 43.3061C42.1347 43.6263 41.684 43.8082 41.2127 43.8118L36.8225 43.8408C36.5885 43.8429 36.3565 43.801 36.1396 43.7175C35.9227 43.634 35.7252 43.5105 35.5584 43.354C35.3917 43.1976 35.2589 43.0112 35.1677 42.8057C35.0765 42.6002 35.0286 42.3795 35.0269 42.1563L35.011 39.7478C35.0088 39.2983 35.1935 38.8661 35.5246 38.5461C35.8558 38.2261 36.3063 38.0444 36.7774 38.0408L41.1676 38.0118C41.4015 38.0096 41.6335 38.0515 41.8503 38.135C42.0671 38.2184 42.2646 38.3419 42.4313 38.4982C42.5981 38.6546 42.7309 38.8408 42.8222 39.0462C42.9134 39.2516 42.9614 39.4722 42.9632 39.6953ZM35.4171 42.1537C35.42 42.5047 35.5685 42.8401 35.8302 43.0866C36.0919 43.333 36.4454 43.4703 36.8132 43.4684L41.2035 43.4394C41.5712 43.4365 41.9229 43.2945 42.1813 43.0447C42.4397 42.7948 42.5838 42.4574 42.582 42.1064L42.5661 39.698C42.5633 39.3471 42.4147 39.0117 42.153 38.7654C41.8913 38.5191 41.5378 38.382 41.1701 38.3842L36.7798 38.4132C36.4121 38.4158 36.0605 38.5576 35.802 38.8073C35.5436 39.0571 35.3994 39.3944 35.4012 39.7452L35.4171 42.1537Z" fill="#6A79A8"/>
<path d="M42.9632 48.6953L42.9791 51.1038C42.9816 51.5535 42.797 51.9859 42.4658 52.3061C42.1347 52.6263 41.684 52.8082 41.2127 52.8118L36.8225 52.8408C36.5885 52.8429 36.3565 52.801 36.1396 52.7175C35.9227 52.634 35.7252 52.5105 35.5584 52.354C35.3917 52.1976 35.2589 52.0112 35.1677 51.8057C35.0765 51.6002 35.0286 51.3795 35.0269 51.1563L35.011 48.7478C35.0088 48.2983 35.1935 47.8661 35.5246 47.5461C35.8558 47.2261 36.3063 47.0444 36.7774 47.0408L41.1676 47.0118C41.4015 47.0096 41.6335 47.0515 41.8503 47.135C42.0671 47.2184 42.2646 47.3419 42.4313 47.4982C42.5981 47.6546 42.7309 47.8408 42.8222 48.0462C42.9134 48.2516 42.9614 48.4722 42.9632 48.6953ZM35.4171 51.1537C35.42 51.5047 35.5685 51.8401 35.8302 52.0866C36.0919 52.333 36.4454 52.4703 36.8132 52.4684L41.2035 52.4394C41.5712 52.4365 41.9229 52.2945 42.1813 52.0447C42.4397 51.7948 42.5838 51.4574 42.582 51.1064L42.5661 48.698C42.5633 48.3471 42.4147 48.0117 42.153 47.7654C41.8913 47.5191 41.5378 47.382 41.1701 47.3842L36.7798 47.4132C36.4121 47.4158 36.0605 47.5576 35.802 47.8073C35.5436 48.0571 35.3994 48.3944 35.4012 48.7452L35.4171 51.1537Z" fill="#6A79A8"/>
<path d="M42.9632 58.6953L42.9791 61.1038C42.9816 61.5535 42.797 61.9859 42.4658 62.3061C42.1347 62.6263 41.684 62.8082 41.2127 62.8118L36.8225 62.8408C36.5885 62.8429 36.3565 62.801 36.1396 62.7175C35.9227 62.634 35.7252 62.5105 35.5584 62.354C35.3917 62.1976 35.2589 62.0112 35.1677 61.8057C35.0765 61.6002 35.0286 61.3795 35.0269 61.1563L35.011 58.7478C35.0088 58.2983 35.1935 57.8661 35.5246 57.5461C35.8558 57.2261 36.3063 57.0444 36.7774 57.0408L41.1676 57.0118C41.4015 57.0096 41.6335 57.0515 41.8503 57.135C42.0671 57.2184 42.2646 57.3419 42.4313 57.4982C42.5981 57.6546 42.7309 57.8408 42.8222 58.0462C42.9134 58.2516 42.9614 58.4722 42.9632 58.6953ZM35.4171 61.1537C35.42 61.5047 35.5685 61.8401 35.8302 62.0866C36.0919 62.333 36.4454 62.4703 36.8132 62.4684L41.2035 62.4394C41.5712 62.4365 41.9229 62.2945 42.1813 62.0447C42.4397 61.7948 42.5838 61.4574 42.582 61.1064L42.5661 58.698C42.5633 58.3471 42.4147 58.0117 42.153 57.7654C41.8913 57.5191 41.5378 57.382 41.1701 57.3842L36.7798 57.4132C36.4121 57.4158 36.0605 57.5576 35.802 57.8073C35.5436 58.0571 35.3994 58.3944 35.4012 58.7452L35.4171 61.1537Z" fill="#6A79A8"/>
<path d="M36 60L37.9976 62L42 58" stroke="#6A79A8" stroke-width="0.5" stroke-linecap="round" stroke-linejoin="round"/>
<path d="M36 41L37.9976 43L42 39" stroke="#6A79A8" stroke-width="0.5" stroke-linecap="round" stroke-linejoin="round"/>
<path d="M36 50L37.9976 52L42 48" stroke="#6A79A8" stroke-width="0.5" stroke-linecap="round" stroke-linejoin="round"/>
</svg>
