<svg width="1219" height="740" viewBox="0 0 1219 740" fill="none" xmlns="http://www.w3.org/2000/svg">
<path fill-rule="evenodd" clip-rule="evenodd" d="M771.523 323.926C771.523 311.133 783.603 300.763 798.504 300.763H1053.17C1068.07 300.763 1080.15 311.134 1080.15 323.926V416.576C1080.15 429.368 1068.07 439.738 1053.17 439.738H798.504C783.603 439.738 771.523 429.368 771.523 416.576V323.926Z" fill="#EE1F40"/>
<path d="M771.523 323.926L773.643 314.91L779.426 307.548L788.001 302.584L798.503 300.763H1054.48L1064.98 302.584L1073.56 307.548L1079.34 314.91L1081.46 323.926V416.576L1079.34 425.592L1073.56 432.956L1064.98 437.919L1054.48 439.739H798.503L788.001 437.919L779.426 432.956L773.643 425.592L771.523 416.576" stroke="#0B63CF" stroke-width="6.62591" stroke-miterlimit="10" stroke-linejoin="round"/>
<path d="M201.045 349.414C200.631 345.239 198.854 341.996 195.715 339.684C192.575 337.372 188.313 336.216 182.931 336.216C179.273 336.216 176.185 336.734 173.666 337.769C171.148 338.769 169.215 340.167 167.87 341.961C166.559 343.755 165.903 345.791 165.903 348.068C165.834 349.966 166.231 351.622 167.093 353.037C167.991 354.452 169.215 355.676 170.768 356.712C172.321 357.712 174.115 358.592 176.151 359.351C178.186 360.076 180.36 360.697 182.672 361.214L192.195 363.492C196.819 364.527 201.063 365.907 204.927 367.632C208.792 369.357 212.138 371.479 214.968 373.998C217.797 376.517 219.988 379.484 221.541 382.9C223.128 386.316 223.939 390.232 223.973 394.649C223.939 401.136 222.283 406.76 219.005 411.521C215.761 416.248 211.069 419.923 204.927 422.545C198.82 425.133 191.453 426.427 182.827 426.427C174.27 426.427 166.817 425.116 160.469 422.494C154.154 419.871 149.22 415.99 145.666 410.848C142.147 405.673 140.301 399.272 140.128 391.647H161.814C162.056 395.201 163.074 398.168 164.868 400.549C166.697 402.895 169.129 404.672 172.165 405.88C175.236 407.053 178.704 407.64 182.568 407.64C186.364 407.64 189.659 407.087 192.454 405.983C195.283 404.879 197.474 403.344 199.027 401.377C200.58 399.41 201.356 397.15 201.356 394.597C201.356 392.216 200.649 390.215 199.234 388.593C197.854 386.972 195.818 385.591 193.127 384.453C190.47 383.314 187.209 382.279 183.345 381.347L171.803 378.449C162.867 376.275 155.811 372.877 150.635 368.253C145.459 363.63 142.889 357.402 142.923 349.569C142.889 343.151 144.597 337.545 148.047 332.748C151.532 327.952 156.311 324.209 162.384 321.517C168.456 318.826 175.357 317.48 183.086 317.48C190.953 317.48 197.819 318.826 203.685 321.517C209.585 324.209 214.174 327.952 217.452 332.748C220.73 337.545 222.421 343.1 222.524 349.414H201.045ZM332.571 356.039H309.901C309.487 353.106 308.642 350.501 307.365 348.224C306.089 345.912 304.45 343.945 302.449 342.323C300.447 340.702 298.136 339.459 295.513 338.597C292.925 337.734 290.113 337.303 287.077 337.303C281.591 337.303 276.812 338.666 272.741 341.392C268.669 344.083 265.512 348.016 263.269 353.192C261.026 358.333 259.905 364.578 259.905 371.928C259.905 379.484 261.026 385.833 263.269 390.974C265.546 396.115 268.721 399.997 272.792 402.619C276.864 405.241 281.574 406.553 286.922 406.553C289.924 406.553 292.701 406.156 295.254 405.362C297.842 404.569 300.137 403.413 302.138 401.895C304.139 400.342 305.795 398.461 307.107 396.253C308.452 394.045 309.384 391.526 309.901 388.697L332.571 388.8C331.984 393.665 330.518 398.358 328.171 402.878C325.86 407.363 322.737 411.383 318.803 414.937C314.904 418.457 310.246 421.251 304.829 423.322C299.447 425.357 293.357 426.375 286.559 426.375C277.105 426.375 268.652 424.236 261.199 419.957C253.781 415.679 247.915 409.485 243.602 401.377C239.323 393.269 237.184 383.452 237.184 371.928C237.184 360.369 239.358 350.535 243.705 342.427C248.053 334.318 253.953 328.142 261.406 323.898C268.859 319.62 277.243 317.48 286.559 317.48C292.701 317.48 298.394 318.343 303.639 320.068C308.918 321.793 313.593 324.312 317.665 327.625C321.736 330.902 325.049 334.922 327.602 339.684C330.19 344.445 331.846 349.897 332.571 356.039ZM348.641 424.926V318.93H371.051V362.663H416.545V318.93H438.903V424.926H416.545V381.14H371.051V424.926H348.641ZM554.785 371.928C554.785 383.487 552.594 393.32 548.212 401.429C543.865 409.537 537.93 415.731 530.408 420.009C522.921 424.253 514.502 426.375 505.151 426.375C495.732 426.375 487.278 424.236 479.791 419.957C472.303 415.679 466.386 409.485 462.038 401.377C457.691 393.269 455.517 383.452 455.517 371.928C455.517 360.369 457.691 350.535 462.038 342.427C466.386 334.318 472.303 328.142 479.791 323.898C487.278 319.62 495.732 317.48 505.151 317.48C514.502 317.48 522.921 319.62 530.408 323.898C537.93 328.142 543.865 334.318 548.212 342.427C552.594 350.535 554.785 360.369 554.785 371.928ZM532.064 371.928C532.064 364.44 530.943 358.126 528.7 352.985C526.492 347.844 523.369 343.945 519.332 341.288C515.295 338.631 510.568 337.303 505.151 337.303C499.734 337.303 495.007 338.631 490.97 341.288C486.933 343.945 483.793 347.844 481.55 352.985C479.342 358.126 478.238 364.44 478.238 371.928C478.238 379.415 479.342 385.729 481.55 390.871C483.793 396.012 486.933 399.911 490.97 402.567C495.007 405.224 499.734 406.553 505.151 406.553C510.568 406.553 515.295 405.224 519.332 402.567C523.369 399.911 526.492 396.012 528.7 390.871C530.943 385.729 532.064 379.415 532.064 371.928ZM668.791 371.928C668.791 383.487 666.6 393.32 662.218 401.429C657.871 409.537 651.936 415.731 644.414 420.009C636.927 424.253 628.508 426.375 619.157 426.375C609.737 426.375 601.284 424.236 593.797 419.957C586.309 415.679 580.392 409.485 576.044 401.377C571.697 393.269 569.523 383.452 569.523 371.928C569.523 360.369 571.697 350.535 576.044 342.427C580.392 334.318 586.309 328.142 593.797 323.898C601.284 319.62 609.737 317.48 619.157 317.48C628.508 317.48 636.927 319.62 644.414 323.898C651.936 328.142 657.871 334.318 662.218 342.427C666.6 350.535 668.791 360.369 668.791 371.928ZM646.07 371.928C646.07 364.44 644.949 358.126 642.706 352.985C640.498 347.844 637.375 343.945 633.338 341.288C629.301 338.631 624.574 337.303 619.157 337.303C613.74 337.303 609.013 338.631 604.976 341.288C600.939 343.945 597.799 347.844 595.556 352.985C593.348 358.126 592.244 364.44 592.244 371.928C592.244 379.415 593.348 385.729 595.556 390.871C597.799 396.012 600.939 399.911 604.976 402.567C609.013 405.224 613.74 406.553 619.157 406.553C624.574 406.553 629.301 405.224 633.338 402.567C637.375 399.911 640.498 396.012 642.706 390.871C644.949 385.729 646.07 379.415 646.07 371.928ZM685.392 424.926V318.93H707.802V406.449H753.244V424.926H685.392Z" fill="#0B63CF"/>
<path d="M798.804 424.926V318.93H870.227V337.406H821.214V362.663H866.553V381.14H821.214V406.449H870.434V424.926H798.804ZM886.906 424.926V411.625L939.8 337.406H886.802V318.93H967.956V332.231L915.009 406.449H968.059V424.926H886.906ZM979.044 318.93H1004.15L1028.32 364.578H1029.35L1053.52 318.93H1078.62L1039.96 387.455V424.926H1017.71V387.455L979.044 318.93Z" fill="white"/>
</svg>
